<svg width="64" height="79" viewBox="0 0 64 79" fill="none" xmlns="http://www.w3.org/2000/svg">
<path d="M51.2 20.9454H45.9636V15.7091C45.9636 12.8205 43.6136 10.4727 40.7273 10.4727H12.8C9.91365 10.4727 7.56363 12.8205 7.56363 15.7091V43.6364C7.56363 46.525 9.91365 48.8727 12.8 48.8727H18.0364V54.1091C18.0364 56.9977 20.3864 59.3454 23.2727 59.3454H51.2C54.0863 59.3454 56.4364 56.9977 56.4364 54.1091V26.1818C56.4364 23.2932 54.0863 20.9454 51.2 20.9454ZM12.8 45.3818C11.8387 45.3818 11.0545 44.5977 11.0545 43.6364V15.7091C11.0545 14.7477 11.8387 13.9636 12.8 13.9636H40.7273C41.6886 13.9636 42.4727 14.7477 42.4727 15.7091V20.9454H23.2727C20.3864 20.9454 18.0364 23.2932 18.0364 26.1818V45.3818H12.8ZM52.9455 54.1091C52.9455 55.0704 52.1613 55.8545 51.2 55.8545H23.2727C22.3114 55.8545 21.5273 55.0704 21.5273 54.1091V26.1818C21.5273 25.2205 22.3114 24.4364 23.2727 24.4364H51.2C52.1613 24.4364 52.9455 25.2205 52.9455 26.1818V54.1091Z" fill="black"/>
<path fill-rule="evenodd" clip-rule="evenodd" d="M38.6909 40.0743V52.3218C43.0981 51.8833 46.5455 48.1601 46.5455 43.637C46.5455 40.6772 45.0694 38.0602 42.8135 36.4828C42.231 38.3352 40.6437 39.7461 38.6909 40.0743ZM36.9455 52.3218V40.0743C34.9927 39.7459 33.4054 38.3354 32.8228 36.4831C30.5668 38.0606 29.0909 40.6778 29.0909 43.6373C29.0909 48.1601 32.5383 51.8831 36.9455 52.3218ZM33.8908 47.1279C34.6129 47.1279 35.1999 47.7148 35.1999 48.437C35.1999 49.1591 34.6129 49.7461 33.8908 49.7461C33.1686 49.7461 32.5817 49.1591 32.5817 48.437C32.5817 47.7148 33.1686 47.1279 33.8908 47.1279ZM41.7453 47.1279C42.4675 47.1279 43.0544 47.7148 43.0544 48.437C43.0544 49.1591 42.4675 49.7461 41.7453 49.7461C41.0231 49.7461 40.4362 49.1591 40.4362 48.437C40.4362 47.7148 41.0231 47.1279 41.7453 47.1279ZM33.018 43.637C33.7402 43.637 34.3271 44.2239 34.3271 44.9461C34.3271 45.6682 33.7402 46.2552 33.018 46.2552C32.2959 46.2552 31.709 45.6682 31.709 44.9461C31.709 44.2239 32.2959 43.637 33.018 43.637ZM43.0545 44.5097C43.5367 44.5097 43.9273 44.9002 43.9273 45.3824C43.9273 45.8646 43.5367 46.2552 43.0545 46.2552C42.5724 46.2552 42.1818 45.8646 42.1818 45.3824C42.1818 44.9002 42.5724 44.5097 43.0545 44.5097ZM41.7455 41.0188C42.4676 41.0188 43.0545 41.6057 43.0545 42.3279C43.0545 43.0501 42.4676 43.637 41.7455 43.637C41.0233 43.637 40.4364 43.0501 40.4364 42.3279C40.4364 41.6057 41.0233 41.0188 41.7455 41.0188ZM34.3274 41.0188C34.8096 41.0188 35.2001 41.4093 35.2001 41.8915C35.2001 42.3737 34.8096 42.7642 34.3274 42.7642C33.8452 42.7642 33.4547 42.3737 33.4547 41.8915C33.4547 41.4093 33.8452 41.0188 34.3274 41.0188ZM35.0136 31.5682C34.0601 32.3678 33.4547 33.5689 33.4547 34.9097C33.4547 37.3184 35.4096 39.2733 37.8183 39.2733C40.2271 39.2733 42.182 37.3184 42.182 34.9097C42.182 33.5482 41.5569 32.3319 40.5783 31.5311C41.2034 30.7456 41.4761 29.802 41.2154 28.6129C41.1107 28.1428 40.6459 27.8449 40.1757 27.9475C39.7056 28.0522 39.4067 28.518 39.5103 28.9882C39.6696 29.7115 39.4307 30.2559 38.9768 30.702C38.6081 30.6006 38.2198 30.546 37.8183 30.546C37.3961 30.546 36.987 30.606 36.6019 30.7184C36.1372 30.2689 35.8917 29.7202 36.0532 28.9882C36.1558 28.518 35.8579 28.0522 35.3878 27.9475C34.9176 27.8449 34.4517 28.1428 34.347 28.6129C34.0819 29.8195 34.3678 30.7751 35.0136 31.5682Z" fill="black"/>
</svg>
