<svg width="64" height="81" viewBox="0 0 64 81" fill="none" xmlns="http://www.w3.org/2000/svg">
<path d="M51.84 20.98C51.84 16.3912 48.1088 12.66 43.52 12.66H20.48C15.8912 12.66 12.16 16.3912 12.16 20.98V44.02C12.16 48.6088 15.8912 52.34 20.48 52.34H26.88C27.936 52.34 28.8 51.476 28.8 50.42C28.8 49.364 27.936 48.5 26.88 48.5H20.48C18.0096 48.5 16 46.4904 16 44.02V20.98C16 18.5096 18.0096 16.5 20.48 16.5H43.52C45.9904 16.5 48 18.5096 48 20.98V27.38C48 28.436 48.864 29.3 49.92 29.3C50.976 29.3 51.84 28.436 51.84 27.38V20.98Z" fill="black"/>
<path d="M41.6 33.14C40.544 33.14 39.68 34.004 39.68 35.06V40.18H34.56C33.504 40.18 32.64 41.044 32.64 42.1C32.64 43.156 33.504 44.02 34.56 44.02H39.68V49.14C39.68 50.196 40.544 51.06 41.6 51.06C42.656 51.06 43.52 50.196 43.52 49.14V44.02H48.64C49.696 44.02 50.56 43.156 50.56 42.1C50.56 41.044 49.696 40.18 48.64 40.18H43.52V35.06C43.52 34.004 42.656 33.14 41.6 33.14Z" fill="black"/>
<path fill-rule="evenodd" clip-rule="evenodd" d="M30.72 28.9278V37.9093C33.9519 37.5877 36.48 34.8574 36.48 31.5405C36.48 29.37 35.3976 27.4508 33.7433 26.2941C33.3161 27.6525 32.1521 28.6872 30.72 28.9278ZM29.44 37.9093V28.9278C28.008 28.687 26.844 27.6526 26.4167 26.2943C24.7623 27.4511 23.68 29.3704 23.68 31.5407C23.68 34.8574 26.2081 37.5876 29.44 37.9093ZM27.1999 34.1005C27.7295 34.1005 28.1599 34.5309 28.1599 35.0605C28.1599 35.5901 27.7295 36.0205 27.1999 36.0205C26.6703 36.0205 26.2399 35.5901 26.2399 35.0605C26.2399 34.5309 26.6703 34.1005 27.1999 34.1005ZM32.9599 34.1005C33.4895 34.1005 33.9199 34.5309 33.9199 35.0605C33.9199 35.5901 33.4895 36.0205 32.9599 36.0205C32.4303 36.0205 31.9999 35.5901 31.9999 35.0605C31.9999 34.5309 32.4303 34.1005 32.9599 34.1005ZM26.5599 31.5405C27.0895 31.5405 27.5199 31.9709 27.5199 32.5005C27.5199 33.0301 27.0895 33.4605 26.5599 33.4605C26.0303 33.4605 25.5999 33.0301 25.5999 32.5005C25.5999 31.9709 26.0303 31.5405 26.5599 31.5405ZM33.92 32.1805C34.2736 32.1805 34.56 32.4669 34.56 32.8205C34.56 33.1741 34.2736 33.4605 33.92 33.4605C33.5664 33.4605 33.28 33.1741 33.28 32.8205C33.28 32.4669 33.5664 32.1805 33.92 32.1805ZM32.96 29.6205C33.4896 29.6205 33.92 30.0509 33.92 30.5805C33.92 31.1101 33.4896 31.5405 32.96 31.5405C32.4304 31.5405 32 31.1101 32 30.5805C32 30.0509 32.4304 29.6205 32.96 29.6205ZM27.5201 29.6205C27.8737 29.6205 28.1601 29.9069 28.1601 30.2605C28.1601 30.6141 27.8737 30.9005 27.5201 30.9005C27.1665 30.9005 26.8801 30.6141 26.8801 30.2605C26.8801 29.9069 27.1665 29.6205 27.5201 29.6205ZM28.0233 22.69C27.3241 23.2764 26.8801 24.1572 26.8801 25.1405C26.8801 26.9069 28.3137 28.3405 30.0801 28.3405C31.8465 28.3405 33.2801 26.9069 33.2801 25.1405C33.2801 24.1421 32.8217 23.2501 32.1041 22.6628C32.5625 22.0868 32.7625 21.3948 32.5713 20.5228C32.4945 20.178 32.1537 19.9596 31.8089 20.0348C31.4641 20.1116 31.2449 20.4532 31.3209 20.798C31.4377 21.3284 31.2625 21.7277 30.9297 22.0548C30.6593 21.9804 30.3745 21.9404 30.0801 21.9404C29.7705 21.9404 29.4705 21.9844 29.1881 22.0668C28.8473 21.7372 28.6673 21.3348 28.7857 20.798C28.8609 20.4532 28.6425 20.1116 28.2977 20.0348C27.9529 19.9596 27.6113 20.178 27.5345 20.5228C27.3401 21.4076 27.5497 22.1084 28.0233 22.69Z" fill="black"/>
</svg>
