<svg width="64" height="79" viewBox="0 0 64 79" fill="none" xmlns="http://www.w3.org/2000/svg">
<path d="M56.4003 9.36366C55.6003 7.23642 53.5639 5.81818 51.2912 5.81818H12.7097C10.4552 5.81818 8.40064 7.23636 7.60064 9.36366C2.25518 23.6002 2.90973 21.0361 2.90973 23.9999C2.90973 27.3999 5.25516 30.2364 8.41885 31.0364C8.34612 31.5455 8.3643 28.2546 8.3643 58.5453C8.3643 61.5453 10.8189 63.9999 13.8189 63.9999H50.1825C53.1825 63.9999 55.637 61.5453 55.637 58.5453V36.7272C55.637 35.7271 54.8189 34.909 53.8189 34.909C52.8188 34.909 52.0007 35.7271 52.0007 36.7272V58.5453C52.0007 59.5454 51.1825 60.3635 50.1825 60.3635H13.8189C12.8188 60.3635 12.0007 59.5454 12.0007 58.5453C12.0007 28.1093 12.0189 31.5816 11.9461 31.0364C13.4007 30.6728 14.6734 29.8728 15.6371 28.7637C18.5643 32.1091 23.619 32.1091 26.5462 28.7637C29.4734 32.1091 34.5281 32.1091 37.4552 28.7637C40.3825 32.1091 45.4372 32.1091 48.3643 28.7637C52.8189 33.8546 61.0916 30.6728 61.0916 24.0001C61.0916 20.9274 61.673 23.3999 56.4003 9.36366ZM11.0004 10.6364C11.2732 9.92727 11.9459 9.4546 12.7095 9.4546H51.3097C52.0551 9.4546 52.7461 9.92733 53.0188 10.6364L56.6733 20.3638H7.34615L11.0004 10.6364ZM10.1823 27.6365C8.18228 27.6365 6.54592 26.0002 6.54592 24.0002H13.8186C13.8186 26.0002 12.1823 27.6365 10.1823 27.6365ZM21.0914 27.6365C19.0914 27.6365 17.455 26.0002 17.455 24.0002H24.7277C24.7277 26.0002 23.0914 27.6365 21.0914 27.6365ZM32.0005 27.6365C30.0005 27.6365 28.3641 26.0002 28.3641 24.0002H35.6368C35.6368 26.0002 34.0005 27.6365 32.0005 27.6365ZM42.9096 27.6365C40.9096 27.6365 39.2732 26.0002 39.2732 24.0002H46.5459C46.5459 26.0002 44.9096 27.6365 42.9096 27.6365ZM53.8186 27.6365C51.8186 27.6365 50.1823 26.0002 50.1823 24.0002H57.455C57.455 26.0002 55.8186 27.6365 53.8186 27.6365Z" fill="black"/>
<path fill-rule="evenodd" clip-rule="evenodd" d="M32.8727 45.3106V57.5582C37.2799 57.1196 40.7273 53.3964 40.7273 48.8733C40.7273 45.9136 39.2513 43.2965 36.9954 41.7192C36.4128 43.5716 34.8255 44.9825 32.8727 45.3106ZM31.1273 57.5582V45.3106C29.1745 44.9823 27.5872 43.5717 27.0046 41.7195C24.7487 43.2969 23.2727 45.9142 23.2727 48.8736C23.2727 53.3964 26.7201 57.1194 31.1273 57.5582ZM28.0726 52.3642C28.7948 52.3642 29.3817 52.9512 29.3817 53.6733C29.3817 54.3955 28.7948 54.9824 28.0726 54.9824C27.3504 54.9824 26.7635 54.3955 26.7635 53.6733C26.7635 52.9512 27.3504 52.3642 28.0726 52.3642ZM35.9271 52.3642C36.6493 52.3642 37.2362 52.9512 37.2362 53.6733C37.2362 54.3955 36.6493 54.9824 35.9271 54.9824C35.205 54.9824 34.618 54.3955 34.618 53.6733C34.618 52.9512 35.205 52.3642 35.9271 52.3642ZM27.1999 48.8733C27.922 48.8733 28.509 49.4602 28.509 50.1824C28.509 50.9046 27.922 51.4915 27.1999 51.4915C26.4777 51.4915 25.8908 50.9046 25.8908 50.1824C25.8908 49.4602 26.4777 48.8733 27.1999 48.8733ZM37.2364 49.7461C37.7186 49.7461 38.1091 50.1366 38.1091 50.6188C38.1091 51.101 37.7186 51.4915 37.2364 51.4915C36.7542 51.4915 36.3636 51.101 36.3636 50.6188C36.3636 50.1366 36.7542 49.7461 37.2364 49.7461ZM35.9273 46.2551C36.6494 46.2551 37.2364 46.8421 37.2364 47.5642C37.2364 48.2864 36.6494 48.8733 35.9273 48.8733C35.2051 48.8733 34.6182 48.2864 34.6182 47.5642C34.6182 46.8421 35.2051 46.2551 35.9273 46.2551ZM28.5092 46.2551C28.9914 46.2551 29.382 46.6457 29.382 47.1279C29.382 47.6101 28.9914 48.0006 28.5092 48.0006C28.027 48.0006 27.6365 47.6101 27.6365 47.1279C27.6365 46.6457 28.027 46.2551 28.5092 46.2551ZM29.1954 36.8046C28.2419 37.6042 27.6365 38.8053 27.6365 40.1461C27.6365 42.5548 29.5914 44.5097 32.0001 44.5097C34.4089 44.5097 36.3638 42.5548 36.3638 40.1461C36.3638 38.7846 35.7387 37.5682 34.7601 36.7674C35.3852 35.982 35.6579 35.0383 35.3972 33.8493C35.2925 33.3791 34.8277 33.0813 34.3576 33.1838C33.8874 33.2886 33.5885 33.7544 33.6921 34.2246C33.8514 34.9478 33.6125 35.4922 33.1586 35.9384C32.7899 35.8369 32.4016 35.7824 32.0001 35.7824C31.5779 35.7824 31.1688 35.8424 30.7837 35.9548C30.319 35.5053 30.0735 34.9566 30.235 34.2246C30.3376 33.7544 30.0398 33.2886 29.5696 33.1838C29.0994 33.0813 28.6336 33.3791 28.5288 33.8493C28.2637 35.0558 28.5496 36.0115 29.1954 36.8046Z" fill="black"/>
</svg>
