<svg width="64" height="80" viewBox="0 0 64 80" fill="none" xmlns="http://www.w3.org/2000/svg">
<path d="M46.0983 13.59H29.0364C26.8978 13.59 25.1587 15.3292 25.1587 17.4677V24.4474C25.1587 24.8758 25.5057 25.2229 25.9342 25.2229C26.3627 25.2229 26.7098 24.8758 26.7098 24.4474V17.4677C26.7098 16.1842 27.7529 15.1411 29.0364 15.1411H46.0983C47.3818 15.1411 48.4249 16.1842 48.4249 17.4677V20.5699H38.2091C38.0016 20.5699 37.8078 20.4904 37.6604 20.3431C37.0632 19.6993 36.3245 18.9646 35.3725 19.0207H29.81C29.3815 19.0207 29.0345 19.3678 29.0345 19.7963C29.0345 20.2248 29.3815 20.5718 29.81 20.5718H35.3725C35.8165 20.5195 36.2722 21.1942 36.563 21.4404C37.0031 21.8786 37.5867 22.121 38.2071 22.121H48.4229V32.9785C48.4229 34.262 47.3798 35.3051 46.0963 35.3051H34.4629C33.447 35.3148 33.4412 36.8427 34.4629 36.8562H46.0963C48.2348 36.8562 49.974 35.1171 49.974 32.9785L49.9759 17.4677C49.9759 15.3292 48.2368 13.59 46.0983 13.59Z" fill="black"/>
<path d="M27.4853 27.5497H10.4234C8.28489 27.5497 6.54575 29.2889 6.54575 31.4274V46.9382C6.54575 49.0768 8.28489 50.8159 10.4234 50.8159H27.4853C29.6239 50.8159 31.363 49.0768 31.363 46.9382V31.4274C31.363 29.2889 29.6239 27.5497 27.4853 27.5497ZM27.4853 49.2649H10.4234C9.13994 49.2649 8.09682 48.2217 8.09682 46.9382V31.4274C8.09682 30.1439 9.13994 29.1008 10.4234 29.1008H27.4853C28.7688 29.1008 29.8119 30.1439 29.8119 31.4274V34.5296H19.5962C19.3887 34.5296 19.1948 34.4501 19.0474 34.3028C18.4503 33.659 17.7116 32.9243 16.7596 32.9804H11.197C10.1811 32.9979 10.1733 34.514 11.197 34.5315H16.7596C17.2036 34.4811 17.6592 35.1539 17.95 35.4001C18.3901 35.8383 18.9737 36.0807 19.5942 36.0807H29.81V46.9382C29.81 48.2217 28.7668 49.2648 27.4833 49.2648L27.4853 49.2649Z" fill="black"/>
<path d="M45.3225 39.1826C44.894 39.1826 44.5469 39.5297 44.5469 39.9582V43.0603C44.5469 45.1989 42.8078 46.938 40.6692 46.938H36.3378L37.3402 45.9357C38.0556 45.2164 36.9621 44.1248 36.2428 44.8383C36.1672 44.941 33.67 47.3336 33.7495 47.417C33.6293 47.7 33.6991 48.0471 33.9182 48.2623L36.2448 50.5889C36.966 51.3024 38.0557 50.2128 37.3422 49.4915L36.3398 48.4892H40.6712C43.6648 48.4892 46.1002 46.054 46.1002 43.0601V39.958C46.1002 39.5295 45.7532 39.1824 45.3247 39.1824L45.3225 39.1826Z" fill="black"/>
<path d="M10.4229 21.3454V24.4476C10.4229 24.8761 10.77 25.2231 11.1985 25.2231C11.627 25.2231 11.974 24.8761 11.974 24.4476V21.3454C11.974 19.2069 13.7132 17.4677 15.8517 17.4677H20.1831L19.1808 18.4701C18.4653 19.1894 19.5588 20.281 20.2781 19.5675L22.6047 17.2409C22.8238 17.0256 22.8936 16.6786 22.7734 16.3955C22.8684 16.3102 20.3441 13.9215 20.2801 13.8169C19.5588 13.1053 18.4692 14.193 19.1827 14.9142L20.1851 15.9166H15.8537C12.8601 15.9166 10.4247 18.3518 10.4247 21.3456L10.4229 21.3454Z" fill="black"/>
<path fill-rule="evenodd" clip-rule="evenodd" d="M19.4 42.5674V48.1808C21.42 47.9798 23 46.2734 23 44.2003C23 42.8437 22.3235 41.6442 21.2895 40.9213C21.0225 41.7703 20.295 42.417 19.4 42.5674ZM18.6 48.1808V42.5674C17.705 42.4169 16.9775 41.7704 16.7105 40.9214C15.6765 41.6444 15 42.844 15 44.2004C15 46.2734 16.58 47.9797 18.6 48.1808ZM17.1999 45.8003C17.5309 45.8003 17.7999 46.0693 17.7999 46.4003C17.7999 46.7313 17.5309 47.0003 17.1999 47.0003C16.8689 47.0003 16.5999 46.7313 16.5999 46.4003C16.5999 46.0693 16.8689 45.8003 17.1999 45.8003ZM20.7999 45.8003C21.1309 45.8003 21.3999 46.0693 21.3999 46.4003C21.3999 46.7313 21.1309 47.0003 20.7999 47.0003C20.4689 47.0003 20.1999 46.7313 20.1999 46.4003C20.1999 46.0693 20.4689 45.8003 20.7999 45.8003ZM16.7999 44.2003C17.1309 44.2003 17.3999 44.4693 17.3999 44.8003C17.3999 45.1313 17.1309 45.4003 16.7999 45.4003C16.4689 45.4003 16.1999 45.1313 16.1999 44.8003C16.1999 44.4693 16.4689 44.2003 16.7999 44.2003ZM21.4 44.6003C21.621 44.6003 21.8 44.7793 21.8 45.0003C21.8 45.2213 21.621 45.4003 21.4 45.4003C21.179 45.4003 21 45.2213 21 45.0003C21 44.7793 21.179 44.6003 21.4 44.6003ZM20.8 43.0003C21.131 43.0003 21.4 43.2693 21.4 43.6003C21.4 43.9313 21.131 44.2003 20.8 44.2003C20.469 44.2003 20.2 43.9313 20.2 43.6003C20.2 43.2693 20.469 43.0003 20.8 43.0003ZM17.4001 43.0003C17.6211 43.0003 17.8001 43.1793 17.8001 43.4003C17.8001 43.6213 17.6211 43.8003 17.4001 43.8003C17.1791 43.8003 17.0001 43.6213 17.0001 43.4003C17.0001 43.1793 17.1791 43.0003 17.4001 43.0003ZM17.7146 38.6688C17.2776 39.0353 17.0001 39.5858 17.0001 40.2003C17.0001 41.3043 17.8961 42.2003 19.0001 42.2003C20.1041 42.2003 21.0001 41.3043 21.0001 40.2003C21.0001 39.5763 20.7136 39.0188 20.2651 38.6517C20.5516 38.2917 20.6766 37.8592 20.5571 37.3143C20.5091 37.0988 20.2961 36.9623 20.0806 37.0093C19.865 37.0573 19.7281 37.2708 19.7756 37.4863C19.8486 37.8178 19.7391 38.0673 19.531 38.2718C19.362 38.2253 19.1841 38.2003 19.0001 38.2003C18.8066 38.2003 18.619 38.2278 18.4425 38.2793C18.2295 38.0733 18.117 37.8218 18.1911 37.4863C18.2381 37.2708 18.1016 37.0573 17.8861 37.0093C17.6706 36.9623 17.457 37.0988 17.409 37.3143C17.2875 37.8673 17.4186 38.3053 17.7146 38.6688Z" fill="black"/>
<path fill-rule="evenodd" clip-rule="evenodd" d="M38.4 28.5674V34.1808C40.42 33.9798 42 32.2734 42 30.2003C42 28.8437 41.3235 27.6442 40.2895 26.9213C40.0225 27.7703 39.295 28.417 38.4 28.5674ZM37.6 34.1808V28.5674C36.705 28.4169 35.9775 27.7704 35.7105 26.9214C34.6765 27.6444 34 28.844 34 30.2004C34 32.2734 35.58 33.9797 37.6 34.1808ZM36.1999 31.8003C36.5309 31.8003 36.7999 32.0693 36.7999 32.4003C36.7999 32.7313 36.5309 33.0003 36.1999 33.0003C35.8689 33.0003 35.5999 32.7313 35.5999 32.4003C35.5999 32.0693 35.8689 31.8003 36.1999 31.8003ZM39.7999 31.8003C40.1309 31.8003 40.3999 32.0693 40.3999 32.4003C40.3999 32.7313 40.1309 33.0003 39.7999 33.0003C39.4689 33.0003 39.1999 32.7313 39.1999 32.4003C39.1999 32.0693 39.4689 31.8003 39.7999 31.8003ZM35.7999 30.2003C36.1309 30.2003 36.3999 30.4693 36.3999 30.8003C36.3999 31.1313 36.1309 31.4003 35.7999 31.4003C35.4689 31.4003 35.1999 31.1313 35.1999 30.8003C35.1999 30.4693 35.4689 30.2003 35.7999 30.2003ZM40.4 30.6003C40.621 30.6003 40.8 30.7793 40.8 31.0003C40.8 31.2213 40.621 31.4003 40.4 31.4003C40.179 31.4003 40 31.2213 40 31.0003C40 30.7793 40.179 30.6003 40.4 30.6003ZM39.8 29.0003C40.131 29.0003 40.4 29.2693 40.4 29.6003C40.4 29.9313 40.131 30.2003 39.8 30.2003C39.469 30.2003 39.2 29.9313 39.2 29.6003C39.2 29.2693 39.469 29.0003 39.8 29.0003ZM36.4001 29.0003C36.6211 29.0003 36.8001 29.1793 36.8001 29.4003C36.8001 29.6213 36.6211 29.8003 36.4001 29.8003C36.1791 29.8003 36.0001 29.6213 36.0001 29.4003C36.0001 29.1793 36.1791 29.0003 36.4001 29.0003ZM36.7146 24.6688C36.2776 25.0353 36.0001 25.5858 36.0001 26.2003C36.0001 27.3043 36.8961 28.2003 38.0001 28.2003C39.1041 28.2003 40.0001 27.3043 40.0001 26.2003C40.0001 25.5763 39.7136 25.0188 39.2651 24.6517C39.5516 24.2917 39.6766 23.8592 39.5571 23.3143C39.5091 23.0988 39.2961 22.9623 39.0806 23.0093C38.865 23.0573 38.7281 23.2708 38.7756 23.4863C38.8486 23.8178 38.7391 24.0673 38.531 24.2718C38.362 24.2253 38.1841 24.2003 38.0001 24.2003C37.8066 24.2003 37.619 24.2278 37.4425 24.2793C37.2295 24.0733 37.117 23.8218 37.1911 23.4863C37.2381 23.2708 37.1016 23.0573 36.8861 23.0093C36.6706 22.9623 36.457 23.0988 36.409 23.3143C36.2875 23.8673 36.4186 24.3053 36.7146 24.6688Z" fill="black"/>
</svg>
